<svg xmlns="http://www.w3.org/2000/svg" viewBox="0 0 1351.97 1173.59"><defs><style>.cls-1{fill:none;}.cls-1,.cls-2{stroke:#000;stroke-miterlimit:10;stroke-width:20px;}</style></defs><g id="Layer_2" data-name="Layer 2"><g id="Layer_1-2" data-name="Layer 1"><polygon class="cls-1" points="1278.79 493.07 1268.22 902.18 976.67 1100.26 88.71 511.99 682.53 83.75 1278.79 493.07"/><line class="cls-1" x1="400.54" y1="297.96" x2="1268.22" y2="902.18"/><polyline class="cls-1" points="1283.58 502.36 676.36 898.19 682.53 83.75"/><polyline class="cls-1" points="395.25 287.54 387.54 700.53 976.67 297.96 976.67 1100.26"/><circle class="cls-2" cx="83.75" cy="504.8" r="73.75"/><circle class="cls-2" cx="400.54" cy="297.96" r="73.75"/><circle class="cls-2" cx="373.03" cy="693.9" r="73.75"/><circle class="cls-2" cx="676.36" cy="490.97" r="73.75"/><circle class="cls-2" cx="667.19" cy="83.75" r="73.75"/><circle class="cls-2" cx="969.86" cy="297.96" r="73.75"/><circle class="cls-2" cx="958.86" cy="693.9" r="73.75"/><circle class="cls-2" cx="1268.22" cy="504.8" r="73.75"/><circle class="cls-2" cx="1268.22" cy="888.38" r="73.75"/><circle class="cls-2" cx="667.19" cy="898.19" r="73.75"/><circle class="cls-2" cx="979.97" cy="1089.84" r="73.75"/></g></g></svg>